<svg height="111" viewBox="0 0 192 111" width="192" xmlns="http://www.w3.org/2000/svg" xmlns:xlink="http://www.w3.org/1999/xlink"><filter id="a" height="238.2%" width="259%" x="-79.5%" y="-79.7%"><feOffset dx="0" dy="-1" in="SourceAlpha" result="shadowOffsetOuter1"/><feGaussianBlur in="shadowOffsetOuter1" result="shadowBlurOuter1" stdDeviation="2"/><feColorMatrix in="shadowBlurOuter1" type="matrix" values="0 0 0 0 0   0 0 0 0 0   0 0 0 0 0  0 0 0 0.5 0"/></filter><filter id="b" height="238.2%" width="259%" x="-79.5%" y="-79.7%"><feOffset dx="0" dy="-1" in="SourceAlpha" result="shadowOffsetOuter1"/><feGaussianBlur in="shadowOffsetOuter1" result="shadowBlurOuter1" stdDeviation="2"/><feColorMatrix in="shadowBlurOuter1" type="matrix" values="0 0 0 0 0   0 0 0 0 0   0 0 0 0 0  0 0 0 0.5 0"/></filter><g fill="none" fill-rule="evenodd" transform=""><g transform="translate(42)"><path d="m54.0234053 0-22.6859053 43h9.9767147l13.7894719-26.1312411 12.7091906 26.1312411h9.8496228l-21.0337106-43z" fill="#c2d95d"/><path d="m73.16625 33.59375 4.49625 9.40625h-8.175z" fill="#000" filter="url(#a)" opacity=".255774"/><path d="m37.74125 33.59375 4.49625 9.40625h-8.175z" fill="#000" filter="url(#b)" opacity=".255774"/><g fill="#d4eb6e"><path d="m88.8372428 4.03125-19.3497428 38.96875h8.5095508l11.7616083-23.6814372 10.8401919 23.6814372h8.401149l-17.9405178-38.96875z"/><path d="m19.3497428 4.03125-19.3497428 38.96875h8.50955075l11.76160835-23.6814372 10.8401921 23.6814372h8.4011488l-17.9405178-38.96875z"/></g></g><path d="m22.1031575 72.8636364c-2.3345754-1.785124-5.2716219-2.8636364-8.434595-2.8636364-7.53088843 0-13.6685625 6.0619835-13.6685625 13.5s6.13767407 13.5 13.6685625 13.5c3.3135909 0 6.3636007-1.1900826 8.7358306-3.1239669l-3.3888998-3.8305786c-4.9703864 3.7190083-13.14140032.7809918-13.14140032-6.5454545 0-6.9917355 7.71916062-10.0413223 12.84016482-6.768595zm21.8395764-2.4545455-13.4426358 26.0702479h5.9117474l8.1710139-15.8429752 7.5308885 15.8429752h5.8364385l-12.4636204-26.0702479zm28.1278682 0h-5.2716219v26.0330579h15.0994313v-5.1694215h-9.8278094zm20.9358697 26.0330579v-26.0330579h5.271622v26.0330579zm16.3796822-26.0330579h7.45558c1.769758 0 3.501863.3347108 5.121004 1.0041322 1.581486.6694215 2.974701 1.5991736 4.179643 2.7892562 1.242596 1.2272728 2.183957 2.6033058 2.824083 4.1652893.715434 1.5991735 1.054324 3.3099174 1.054324 5.0578512 0 1.785124-.33889 3.4958678-1.054324 5.0950414-.640126 1.5619834-1.581487 2.9380165-2.824083 4.1280991-1.204942 1.1900827-2.598157 2.1570248-4.179643 2.7892562-1.619141.7066116-3.351246 1.0413223-5.121004 1.0413223h-5.309277v-.03719h-2.146303zm5.271622 20.8636364h2.183958c4.367915 0 7.907432-3.5330579 7.907432-7.8471075s-3.539517-7.8099173-7.907432-7.8099173h-2.183958zm35.77172-20.8636364-13.442636 26.0702479h5.911748l8.171013-15.8429752 7.530889 15.8429752h5.836438l-12.46362-26.0702479zm41.570504 0h-17.584624v26.0702479h17.471661v-5.2066115h-12.20004v-5.6528926h10.1667v-5.2066116h-10.1667v-4.7975206h12.313003z" fill="#4a4a4a"/><path d="m0 106.075758h1.49351769c.35452188 0 .70150073.061983 1.02585053.18595.31680679.123967.59589848.296143.83727507.516529.24891962.227273.43749508.482094.5657264.77135.14331736.296143.21120452.612947.21120452.936639 0 .330578-.06788716.647383-.21120452.943526-.12823132.289256-.31680678.544077-.5657264.764463-.24137659.220386-.52046828.399449-.83727507.516529-.3243498.130854-.67132865.192837-1.02585053.192837h-1.06356563v-.006887h-.42995206zm1.05602261 3.863636h.43749508c.87499016 0 1.58403391-.65427 1.58403391-1.453168s-.70904375-1.446281-1.58403391-1.446281h-.43749508zm8.60281294.9573v-4.820936h1.05602265v4.820936zm10.02844345-2.968319v.964187h1.1917969c-.1961184.647383-.8523611 1.150138-1.621749 1.150138-.4450381 0-.8674471-.16529-1.1842539-.461433-.3092637-.289256-.4827532-.681818-.4752102-1.088154 0-.406336.1810325-.792011.4978393-1.07438.3168068-.289256.7392158-.447659 1.1842539-.447659h.015086c.3394359.006887.6562427.096419.9277913.268595l.7618449-.681818c-.4601241-.337465-1.0409366-.544077-1.6820931-.550964h-.0226291c-1.5010607 0-2.7230297 1.101928-2.7381158 2.472452-.015086 1.384297 1.191797 2.493113 2.7079437 2.506887h.007543c1.4180875 0 2.6249705-1.053719 2.6249705-2.568871v-.48898zm8.1728609 2.968319v-4.820936h1.0560226v4.820936zm6.9207198-4.820936v.964187h1.4708886v3.863636h1.0560226v-3.863636h1.4633456v-.964187zm11.491789 0-2.6928576 4.827823h1.1842539l1.636835-2.933884 1.5086038 2.933884h1.1691679l-2.4967392-4.827823zm9.3872869 0h-1.0560226v4.820936h3.0247505v-.9573h-1.9687279zm19.6344779.454545c-.4676672-.330578-1.0560226-.530303-1.6896362-.530303-1.5086037 0-2.7381158 1.12259-2.7381158 2.5s1.2295121 2.5 2.7381158 2.5c.6637856 0 1.2747702-.220386 1.7499803-.578512l-.6788716-.709367c-.9956785.688705-2.6325136.144628-2.6325136-1.212121 0-1.294766 1.5463189-1.859504 2.5721694-1.253444zm8.0295435.502755c.2941777 0 .5280113.220386.5280113.488981s-.2338336.482093-.5280113.482093h-.407323v.964188l.9881354 1.935261h1.1239098l-1.0484796-2.066115c.5506404-.227273.9277913-.730028.9277913-1.315427 0-.798899-.7090437-1.453168-1.5840339-1.453168h-2.0667871v4.827823h1.0560226v-3.863636zm9.8021529-.9573-2.6928577 4.827823h1.184254l1.636835-2.933884 1.5086037 2.933884h1.1691679l-2.4967391-4.827823zm12.0047141 0h-3.522589v4.827823h1.056022v-2.011019h2.036615v-.964187h-2.036615v-.88843h2.466567zm5.751552 0v.964187h1.470889v3.863636h1.056022v-3.863636h1.463346v-.964187zm11.273042 2.789256.022629.006887c.55064.172176.87499.413223.87499.674931 0 .123967-.143317.488981-.580813.488981-.233833 0-.859904 0-1.418087-.544077l-.769388.661157c.362065.351239.784474.592286 1.259684.730027.377151.103306.693958.11708.927791.11708.475211 0 .905163-.179063 1.214426-.495868.264006-.268595.422409-.619834.422409-.9573 0-.344353-.143317-.668044-.414866-.943526-.271548-.268595-.663785-.482094-1.169167-.640496-.045259-.013774-.090517-.027548-.150861-.041322-.482753-.110193-.671328-.247934-.678871-.495868-.007543-.158402.045258-.23416.090516-.275482.135774-.130854.39978-.179064.467667-.179064.460124 0 .678872.130854 1.018307.330579l.188576.110193.55064-.819559-.173489-.103306c-.384694-.227273-.814646-.482094-1.584034-.482094-.271549 0-.837275.103306-1.229512.475207-.271549.261708-.407323.599173-.384694.984848.022629.461433.256463.833333.678872 1.088154.30172.185951.62607.261708.79956.303031zm11.86894 2.038567v-2.954545l-1.516147 1.26033-1.516147-1.26033v2.954545h-1.056022v-4.827823h.362064l2.210105 1.831955 2.202561-1.831955h.369608v4.827823zm9.500432-4.827823-2.692858 4.827823h1.184254l1.636835-2.933884 1.508604 2.933884h1.169168l-2.496739-4.827823zm12.359236 4.827823-2.971949-2.816804v2.816804h-1.056023v-4.827823h.331893l2.919148 2.699724v-2.699724h1.056023v4.827823zm7.976742-2.038567.022629.006887c.550641.172176.874991.413223.874991.674931 0 .123967-.143318.488981-.580813.488981-.233833 0-.859904 0-1.418087-.544077l-.769388.661157c.362065.351239.784474.592286 1.259684.730027.377151.103306.693958.11708.927791.11708.47521 0 .905162-.179063 1.214426-.495868.264006-.268595.422409-.619834.422409-.9573 0-.344353-.143317-.668044-.414866-.943526-.271548-.268595-.663785-.482094-1.169168-.640496-.045258-.013774-.090516-.027548-.15086-.041322-.482753-.110193-.671329-.247934-.678872-.495868-.007543-.158402.045258-.23416.090517-.275482.135774-.130854.39978-.179064.467667-.179064.460124 0 .678871.130854 1.018307.330579l.188576.110193.55064-.819559-.173489-.103306c-.384694-.227273-.814646-.482094-1.584034-.482094-.271549 0-.837275.103306-1.229512.475207-.271549.261708-.407323.599173-.384694.984848.022629.461433.256462.833333.678871 1.088154.301721.185951.626071.261708.79956.303031zm10.790289-.936639h-1.953642v-1.84573h-1.056023v4.820936h1.056023v-2.011019h1.953642v2.011019h1.056022v-4.820936h-1.056022zm7.033865 2.968319v-4.820936h1.056022v4.820936zm7.018779-4.820936h1.712265c.87499 0 1.584034.65427 1.584034 1.453168s-.709044 1.446281-1.584034 1.446281h-.656243v1.928374h-1.056022zm1.056022 1.935261h.656243c.286635 0 .528011-.213498.528011-.482093s-.241376-.488981-.528011-.488981h-.656243z" fill="#c8c8c8"/></g></svg>