<svg height="146" viewBox="0 0 516 146" width="516" xmlns="http://www.w3.org/2000/svg" xmlns:xlink="http://www.w3.org/1999/xlink"><mask id="a" fill="#fff"><path d="m61.463.438h-61.463v34.1003 34.1003h61.463z" fill="none"/></mask><mask id="b" fill="#fff"><path d="m.8066 52h90.144v-51.7288h-90.144z" fill="none"/></mask><mask id="c" fill="#fff"><path d="m61.9934.438h-61.463v105.7988h61.463z" fill="none"/></mask><g fill="none" fill-rule="evenodd"><path d="m475.9268 68.5238h9.327c6.181 0 9.328-3.541 9.328-9.713 0-6.274-3.147-9.806-9.328-9.806h-9.327zm11.66-32.067c15.509 0 23.921 9.006 23.921 22.354 0 9.509-4.559 17-12.669 20.235l16.521 29.334s-3.346.911-9.225.911c-5.674 0-8.918-.911-8.918-.911l-15.007-27.317h-6.283v27.317s-3.039.911-8.008.911c-5.474 0-8.212-.911-8.212-.911v-71.923zm-40.046 0c.506 1.515 1.013 3.643 1.013 5.865 0 2.435-.405 4.759-1.013 6.478h-28.182v17.595h23.111c.507 1.72 1.013 3.542 1.013 5.977 0 2.528-.404 4.443-1.013 6.265h-23.111v18.311h29.195c.608 1.617 1.013 3.848 1.013 6.069 0 2.222-.302 4.452-1.013 6.274h-45.415v-72.834zm-78.969-1.209c13.175 0 21.285 3.44 21.285 3.44 0 4.247-1.316 8.895-4.053 11.934 0 0-6.692-2.026-14.7-2.026-8.718 0-12.873 2.63-12.873 7.789 0 5.568 8.412 6.878 16.931 9.918 8.918 3.234 17.841 8.291 17.841 21.545 0 14.667-9.025 22.652-27.373 22.652-14.9 0-24.227-4.955-24.227-4.955 0-4.247 1.519-9.099 3.852-12.343 0 0 9.123 3.141 19.259 3.141 8.012 0 11.661-2.63 11.661-7.789 0-4.656-4.564-6.673-10.443-8.7-10.136-3.336-23.925-6.376-23.925-22.354 0-13.254 8.416-22.252 26.765-22.252zm-54.036 2.12s3.044-.911 8.007-.911c5.071 0 8.212.911 8.212.911v71.012s-3.243.911-8.109.911c-5.373 0-8.11-.911-8.11-.911zm-12.065-.911c.507 1.515 1.013 3.643 1.013 5.865 0 2.435-.404 4.759-1.013 6.478h-28.182v17.595h23.112c.506 1.72 1.013 3.542 1.013 5.977 0 2.528-.404 4.443-1.013 6.265h-23.112v18.311h29.195c.609 1.617 1.013 3.848 1.013 6.069 0 2.222-.302 4.452-1.013 6.274h-45.414v-72.834zm-87.585 60.184c9.123 0 14.797-4.248 14.797-23.767 0-19.724-5.674-23.776-14.797-23.776h-8.212v47.543zm.609-60.184c19.867 0 31.323 10.215 31.323 36.417s-11.456 36.417-31.323 36.417h-25.041v-72.834z" fill="#35297f"/><path d="m0 35.7076v32.931l61.463-35.271v-32.93z" fill="#df0084" mask="url(#a)" transform="translate(0 .562)"/><path d="m90.9506 16.7352-28.689-16.464-61.455 35.263 28.689 16.466z" fill="#5d1b7f" mask="url(#b)" transform="translate(34 93.562)"/><path d="m61.9934 106.2368v-70.529l-61.463-35.27v32.93l32.764 18.8v37.599z" fill="#35297f" mask="url(#c)" transform="translate(65 .562)"/><path d="m2.0421 72.6984 26.657 15.3v-30.601z" fill="#b3007f"/><path d="m31.8245 126.6422 28.246-16.32-.011-37.514-28.235-14.273z" fill="#870c80"/></g></svg>